<svg width="230" height="161" viewBox="0 0 230 161" fill="none" xmlns="http://www.w3.org/2000/svg">
<g clip-path="url(#clip0_761_52065)">
<path d="M7.54017 158.518C3.20083 158.518 0 155.097 0 150.751C0 146.448 3.17937 142.941 7.60457 142.941C10.3331 142.941 11.9661 143.91 13.4696 145.33L12.3096 146.578C11.0423 145.373 9.62397 144.512 7.5831 144.512C4.25347 144.512 1.7618 147.202 1.7618 150.708C1.7618 154.215 4.27493 156.947 7.5831 156.947C9.64543 156.947 10.9986 156.151 12.4384 154.775L13.5554 155.872C11.9876 157.463 10.2687 158.518 7.54017 158.518Z" fill="#097D99"/>
<path d="M60.6541 144.77H51.5453V150.149H59.6873V151.697H51.5453V158.259H49.8479V143.199H60.6541V144.77Z" fill="#097D99"/>
<path d="M82.0518 144.77H72.943V150.149H81.085V151.697H72.943V158.259H71.2456V143.199H82.0518V144.77Z" fill="#097D99"/>
<path d="M103.513 144.749H94.3399V149.891H102.546V151.44H94.3399V156.711H103.62V158.259H92.6425V143.199H103.513V144.749Z" fill="#097D99"/>
<path d="M125.211 144.749H116.038V149.891H124.244V151.44H116.038V156.711H125.319V158.259H114.341V143.199H125.211V144.749Z" fill="#097D99"/>
<path d="M148.471 158.518C144.131 158.518 140.93 155.097 140.93 150.751C140.93 146.448 144.11 142.941 148.536 142.941C151.264 142.941 152.896 143.91 154.4 145.33L153.24 146.578C151.972 145.373 150.554 144.512 148.514 144.512C145.184 144.512 142.692 147.202 142.692 150.708C142.692 154.215 145.206 156.947 148.514 156.947C150.576 156.947 151.93 156.151 153.369 154.775L154.486 155.872C152.918 157.463 151.2 158.518 148.471 158.518Z" fill="#097D99"/>
<path d="M175.11 158.259L170.749 152.408H166.453V158.259H164.756V143.199H171.222C174.531 143.199 176.657 144.984 176.657 147.695C176.657 150.213 174.939 151.676 172.575 152.106L177.194 158.259H175.11ZM171.092 144.77H166.453V150.88H171.071C173.327 150.88 174.938 149.719 174.938 147.76C174.938 145.889 173.52 144.77 171.092 144.77Z" fill="#097D99"/>
<path d="M198.032 144.749H188.86V149.891H197.066V151.44H188.86V156.711H198.14V158.259H187.162V143.199H198.032V144.749Z" fill="#097D99"/>
<path d="M218.399 143.156H219.795L223.92 155.742L228.216 143.199H230L224.629 158.367H223.19L219.066 146.147L214.92 158.367H213.502L208.132 143.199H209.978L214.275 155.742L218.399 143.156Z" fill="#097D99"/>
<path d="M22.5975 156.315C19.5699 151.771 20.3557 145.955 24.7641 142.602C24.4375 148.074 27.6644 150.268 30.5317 152.201C33.3377 154.094 35.7604 155.728 34.9638 160.156C34.9607 160.173 34.9684 160.187 34.9661 160.205C30.4489 162.115 25.3751 160.484 22.5975 156.315ZM37.5827 158.631C37.8978 154.073 35.0819 152.16 32.3418 150.312C29.4936 148.391 26.8019 146.577 27.2787 141.694C27.2971 141.504 27.2442 141.346 27.1622 141.206C31.6641 139.338 36.7041 140.976 39.4687 145.125C42.4342 149.575 41.7511 155.25 37.5827 158.631Z" fill="#FCC49D"/>
<path d="M198.444 80.5035L198.5 100.028C198.018 99.9256 197.535 99.8327 197.054 99.7398C193.355 99.0434 189.693 98.5236 186.068 98.152L186.124 80.4659L154.92 42.2812H170.977L192.298 68.2303L213.88 42.2812H230L198.444 80.5035Z" fill="#097D99"/>
<path d="M158.997 98.0322C157.198 98.1904 155.409 98.3662 153.629 98.5704C151.024 98.8768 148.447 99.2292 145.879 99.6377L134.143 75.8614L129.072 65.593L123.38 54.0623L115.324 71.3299L108.409 86.166L96.7188 111.233C93.0196 112.208 89.358 113.136 85.7332 113.999C84.8991 114.194 84.0742 114.389 83.2393 114.584C82.5439 114.742 81.8485 114.9 81.1624 115.049L94.326 86.8071L99.7494 75.1835L114.906 42.6529L131.398 42.2812L131.713 42.9032L141.8 63.2719L148.326 76.4642V76.4734L158.997 98.0322Z" fill="#097D99"/>
<path d="M148.332 64.0581C146.691 63.6673 145.077 63.4362 143.488 63.3364C142.084 63.2481 140.699 63.2604 139.334 63.3625C137.702 63.4846 136.096 63.7295 134.517 64.0681C129.122 65.2267 124.024 67.4764 119.168 69.6461C118.915 69.759 118.665 69.8711 118.413 69.9832C116.552 70.8132 114.725 71.6155 112.925 72.3334C112.66 72.4386 112.396 72.5415 112.133 72.6428C110.553 73.2509 108.992 73.7884 107.439 74.2099C101.676 75.7754 96.0388 75.7655 90.1101 72.1269C88.6926 71.257 87.2566 70.1705 85.7999 68.8569V78.1971C85.7999 81.3803 87.5019 84.2795 90.1193 85.4128C96.2703 88.077 102.141 87.8305 107.846 86.3249C109.423 85.9088 110.988 85.3982 112.542 84.8246C115.321 83.7989 118.047 81.9516 120.775 80.7338C133.001 75.271 144.606 70.7333 158.761 82.6495V73.4483C158.761 70.2972 157.068 67.4886 154.513 66.2656C152.41 65.2597 150.351 64.5388 148.332 64.0581Z" fill="#097D99"/>
<path d="M45.0463 79.6348V79.621L50.4942 72.9942L75.6876 42.2832H59.6191L38.0351 68.2285L16.7126 42.2832H0.661621L18.1409 63.7223L38.121 88.0767L45.0463 79.6348Z" fill="#097D99"/>
<path d="M12.5726 42.2832V61.9372L12.5634 61.9279V110.529C8.45638 108.542 4.31255 106.166 0.141113 103.316V42.2832H12.5726Z" fill="#097D99"/>
<path d="M76.1016 42.2832V116.109C73.5616 116.619 71.0309 117.075 68.5093 117.455C66.8962 117.707 65.2832 117.928 63.6701 118.114V61.7237L63.6333 61.7706V42.2832H76.1016Z" fill="#097D99"/>
<path d="M230 110.732V131.129C186.037 103.129 148.8 113.082 109.464 123.656C100.851 125.967 92.174 128.279 83.4225 130.192C78.5266 131.259 73.6115 132.188 68.6596 132.921C46.5106 136.208 23.7674 135.456 0.0574951 124.102V103.268C0.0574951 103.268 0.0574951 103.268 0.0666951 103.268C0.0942951 103.287 0.113462 103.305 0.141062 103.315C4.3217 106.165 8.47473 108.542 12.5902 110.529C13.3615 110.91 14.1419 111.271 14.9132 111.615C31.395 119.005 47.4114 120.082 63.8097 118.114C65.4266 117.928 67.0427 117.705 68.6596 117.455C71.1865 117.074 73.7227 116.62 76.2688 116.108C77.9501 115.783 79.6413 115.43 81.3418 115.05C82.0295 114.902 82.7264 114.744 83.4225 114.586C84.259 114.391 85.0854 114.196 85.9219 114.001C89.5543 113.138 93.2244 112.209 96.9312 111.234C99.0219 110.687 101.121 110.129 103.239 109.564C104.038 109.35 104.828 109.137 105.627 108.922C118.596 105.432 132.105 101.839 146.199 99.6383C148.772 99.2299 151.355 98.8767 153.966 98.5711C155.75 98.3669 157.542 98.1903 159.345 98.0329C162.541 97.7641 165.765 97.5875 169.025 97.5131C173.29 97.4202 177.601 97.5131 181.968 97.8102C183.296 97.9031 184.625 98.0237 185.963 98.1542C189.595 98.5258 193.265 99.0456 196.972 99.742C197.455 99.8349 197.938 99.9278 198.421 100.03C208.669 102.079 219.185 105.505 230 110.732Z" fill="#FCC49D"/>
<path d="M149.397 24.015L148.353 23.0284C145.372 20.2121 141.715 18.1767 137.713 17.2945C133.176 16.2948 128.293 15.7643 123.264 15.7858C118.617 15.8057 114.12 16.2864 109.916 17.164C105.637 18.0569 101.698 20.1399 98.5443 23.1712L97.5929 24.0856C97.1697 24.4926 97.5745 25.1905 98.1364 25.0208C105.569 22.7804 114.2 21.5043 123.289 21.4651C132.487 21.426 141.288 22.6867 148.859 24.9532C149.423 25.1221 149.825 24.4196 149.397 24.015Z" fill="#FCC49D"/>
<path d="M157.436 31.6104C154.373 28.7166 150.646 26.6213 146.579 25.5302C139.581 23.653 131.607 22.6211 123.293 22.6572C115.028 22.6925 107.16 23.7566 100.261 25.6377C96.2488 26.7318 92.6026 28.8817 89.6026 31.7655L89.3765 31.9835C88.859 32.4811 89.3711 33.3356 90.0503 33.1045C96.7855 30.8165 109.244 29.2456 123.512 29.1849C137.617 29.1251 149.971 30.5539 156.779 32.7414C157.456 32.9594 157.953 32.0995 157.436 31.6104Z" fill="#FCC49D"/>
<path d="M131.486 7.09269L124.458 0.45282C123.815 -0.154504 122.81 -0.150665 122.172 0.462802L115.239 7.12648C114.899 7.45356 115.169 8.01865 115.637 7.96491C118.108 7.68236 120.646 7.52726 123.229 7.51651C125.899 7.505 128.529 7.64934 131.092 7.93419C131.563 7.98564 131.83 7.41747 131.486 7.09269Z" fill="#FCC49D"/>
<path d="M140.793 15.8864L138.909 14.1067C135.446 10.8351 130.916 8.94097 126.159 8.75747C125.191 8.72062 124.215 8.70373 123.235 8.70757C122.345 8.7114 121.46 8.73213 120.582 8.76976C115.816 8.97322 111.292 10.9203 107.85 14.2288L106.092 15.9179C105.728 16.268 106.064 16.8738 106.552 16.7441C111.706 15.3797 117.367 14.6203 123.259 14.595C129.258 14.5697 135.058 15.3221 140.337 16.7156C140.827 16.8446 141.162 16.235 140.793 15.8864Z" fill="#FCC49D"/>
</g>
<defs>
<clipPath id="clip0_761_52065">
<rect width="230" height="161" fill="white"/>
</clipPath>
</defs>
</svg>
