<svg width="70" height="50" viewBox="0 0 70 50" fill="none" xmlns="http://www.w3.org/2000/svg">
<path d="M2.29248 48.2709C0.974209 48.2709 0 47.231 0 45.9127C0 44.6061 0.966477 43.5391 2.31181 43.5391C3.14298 43.5391 3.63782 43.8329 4.094 44.2659L3.7422 44.6447C3.35561 44.2775 2.92649 44.0184 2.30408 44.0184C1.29121 44.0184 0.533495 44.8341 0.533495 45.9011C0.533495 46.9643 1.29895 47.7954 2.30408 47.7954C2.93036 47.7954 3.34401 47.5519 3.78086 47.1344L4.12106 47.4668C3.64555 47.9539 3.12365 48.2709 2.29248 48.2709Z" fill="white"/>
<path d="M18.4522 44.0966H15.6804V45.7319H18.1584V46.2036H15.6804V48.1984H15.1624V43.625H18.4484V44.0966H18.4522Z" fill="white"/>
<path d="M24.9579 44.0966H22.186V45.7319H24.664V46.2036H22.186V48.1984H21.668V43.625H24.954V44.0966H24.9579Z" fill="white"/>
<path d="M31.4889 44.0928H28.6978V45.6546H31.1951V46.1262H28.6978V47.7267H31.5199V48.1984H28.1836V43.625H31.4889V44.0928Z" fill="white"/>
<path d="M38.0866 44.0928H35.2954V45.6546H37.7928V46.1262H35.2954V47.7267H38.1175V48.1984H34.7773V43.625H38.0827V44.0928H38.0866Z" fill="white"/>
<path d="M45.1619 48.2709C43.8436 48.2709 42.8694 47.231 42.8694 45.9127C42.8694 44.6061 43.8359 43.5391 45.1812 43.5391C46.0124 43.5391 46.5072 43.8329 46.9634 44.2659L46.6116 44.6447C46.225 44.2775 45.7959 44.0184 45.1735 44.0184C44.1606 44.0184 43.4029 44.8341 43.4029 45.9011C43.4029 46.9643 44.1683 47.7954 45.1735 47.7954C45.7997 47.7954 46.2134 47.5519 46.6502 47.1344L46.9904 47.4668C46.5149 47.9539 45.993 48.2709 45.1619 48.2709Z" fill="white"/>
<path d="M53.264 48.1945L51.938 46.4161H50.6313V48.1945H50.1133V43.6211H52.081C53.0862 43.6211 53.7356 44.1623 53.7356 44.9858C53.7356 45.7512 53.2137 46.1958 52.4947 46.3272L53.898 48.1945H53.264ZM52.0424 44.0966H50.6313V45.9522H52.0346C52.7228 45.9522 53.2099 45.6004 53.2099 45.0051C53.2137 44.4368 52.7808 44.0966 52.0424 44.0966Z" fill="white"/>
<path d="M60.2387 44.0928H57.4475V45.6546H59.9449V46.1262H57.4475V47.7267H60.2696V48.1984H56.9294V43.625H60.2348V44.0928H60.2387Z" fill="white"/>
<path d="M66.4361 43.6094H66.8614L68.1178 47.4328L69.4245 43.6248H69.9657L68.3304 48.233H67.8936L66.6371 44.5217L65.3769 48.233H64.9439L63.3086 43.6248H63.8692L65.1758 47.4328L66.4361 43.6094Z" fill="white"/>
<path d="M6.87388 47.6032C5.9538 46.2231 6.19348 44.4564 7.53109 43.4396C7.43057 45.102 8.41252 45.7669 9.28621 46.3545C10.1406 46.9305 10.8751 47.4254 10.6354 48.7707C10.6354 48.7746 10.6354 48.7823 10.6354 48.7862C9.26302 49.3661 7.72052 48.8712 6.87388 47.6032ZM11.4318 48.3068C11.5284 46.9228 10.6702 46.3429 9.83904 45.7785C8.97307 45.1948 8.1535 44.6458 8.3004 43.1613C8.30427 43.1033 8.28881 43.0569 8.26561 43.0144C9.63414 42.4461 11.1689 42.9448 12.0078 44.2051C12.9086 45.5581 12.6998 47.2823 11.4318 48.3068Z" fill="#FCC49D"/>
<path d="M56.5846 33.7509H60.4002L60.377 24.5152L69.9993 12.875H65.0819L58.4982 20.7808L51.9958 12.875H47.0977L56.6155 24.5075L56.5846 33.7509Z" fill="white"/>
<path d="M40.1777 13.0683L40.0772 12.875L35.0477 12.991L24.4551 35.6839H28.6573L37.634 16.4664L45.2923 31.9533H49.5371L40.1777 13.0683Z" fill="white"/>
<path d="M45.2463 19.5119C44.7476 19.392 44.2527 19.3225 43.7695 19.2915C43.3404 19.2645 42.919 19.2683 42.5015 19.2993C42.0028 19.3379 41.5157 19.4114 41.0324 19.5158C39.3856 19.8676 37.8315 20.5518 36.3508 21.2129C36.2735 21.2477 36.1962 21.2825 36.1189 21.3173C35.5506 21.5686 34.9939 21.816 34.4449 22.0325C34.3637 22.0634 34.2826 22.0943 34.2014 22.1252C33.7181 22.3108 33.2426 22.4732 32.771 22.6008C31.012 23.0763 29.2917 23.0763 27.4863 21.9667C27.0533 21.7 26.6165 21.3714 26.1719 20.9693V23.8146C26.1719 24.785 26.6899 25.6664 27.4902 26.0105C29.3651 26.8223 31.1589 26.745 32.8986 26.2888C33.3779 26.1613 33.8573 26.0066 34.3328 25.8327C35.1794 25.5195 36.0106 24.959 36.8456 24.5878C40.5763 22.9255 44.1136 21.5415 48.4318 25.1716V22.3688C48.4318 21.4101 47.9137 20.5518 47.1367 20.1807C46.4872 19.8792 45.8609 19.6588 45.2463 19.5119Z" fill="white"/>
<path d="M13.7396 24.2524V24.2485L15.4019 22.2305L23.0873 12.875H18.1854L11.6017 20.7808L5.09928 12.875H0.201172L5.53226 19.4045L11.6288 26.8232L13.7396 24.2524Z" fill="white"/>
<path d="M0.0429688 12.875V32.4056C1.42696 33.3373 2.7955 34.0872 3.83542 34.6903V18.8594L3.83929 18.8633V12.875H0.0429688Z" fill="white"/>
<path d="M19.4102 12.875V18.8092L19.4218 18.7937V36.2985C20.4617 36.0936 21.8302 35.8192 23.2142 35.506V12.875H19.4102Z" fill="white"/>
<path d="M59.9485 30.3779C58.406 30.0879 56.8829 29.8985 55.379 29.7903C54.053 29.6975 52.7386 29.6704 51.4435 29.6975C49.8933 29.7323 48.3663 29.8482 46.8586 30.0222C41.713 30.6176 36.8149 31.9165 32.1449 33.1729C31.9014 33.2386 31.6617 33.3044 31.4181 33.3662C29.6282 33.8456 27.8731 34.3095 26.145 34.7193C25.8899 34.7811 25.6386 34.8391 25.3834 34.8971C23.868 35.2451 22.3719 35.5427 20.8874 35.7708C15.3785 36.6174 10.0396 36.4628 4.53072 33.9925C3.03848 33.3237 1.53464 32.4887 0.0114746 31.4487V37.7965C7.22526 41.2527 14.1491 41.4846 20.8874 40.4834C22.3951 40.2591 23.8912 39.9769 25.3834 39.6522C28.047 39.0723 30.6875 38.3648 33.3085 37.6612C45.2851 34.4409 56.6161 31.4101 69.996 39.9383V33.7257C66.5554 32.0595 63.2075 30.9926 59.9485 30.3779Z" fill="#FCC49D"/>
<path d="M45.5715 7.31393L45.2545 7.01238C44.346 6.15415 43.2288 5.53561 42.0071 5.26499C40.6232 4.95959 39.1348 4.79722 37.6 4.80495C36.1812 4.81268 34.8127 4.95572 33.5292 5.22634C32.2225 5.49695 31.0241 6.13096 30.0615 7.05491L29.7677 7.33712C29.6401 7.46083 29.7638 7.67345 29.9339 7.6232C32.1993 6.93893 34.832 6.55234 37.6077 6.54074C40.4144 6.52915 43.0973 6.91187 45.4091 7.60387C45.5792 7.65026 45.6991 7.43763 45.5715 7.31393Z" fill="#FCC49D"/>
<path d="M48.022 9.62812C47.0864 8.74669 45.9498 8.10882 44.7089 7.77635C42.5749 7.2042 40.1433 6.89106 37.6072 6.90265C35.0866 6.91425 32.6859 7.23899 30.5829 7.81114C29.3574 8.14361 28.2479 8.80082 27.3316 9.67838L27.262 9.7441C27.1035 9.89487 27.262 10.1577 27.4669 10.0843C29.5197 9.38843 33.3199 8.90906 37.6729 8.88973C41.9757 8.8704 45.745 9.30725 47.8209 9.97218C48.0297 10.0379 48.1805 9.77502 48.022 9.62812Z" fill="#FCC49D"/>
<path d="M40.1052 2.16056L37.9635 0.138693C37.7663 -0.0468704 37.4609 -0.0468704 37.2676 0.142559L35.153 2.17216C35.0486 2.27267 35.1298 2.44277 35.2728 2.42731C36.0267 2.34226 36.7999 2.29587 37.5885 2.292C38.4042 2.28814 39.2045 2.33066 39.9854 2.41958C40.1323 2.43118 40.2135 2.25721 40.1052 2.16056Z" fill="#FCC49D"/>
<path d="M42.9467 4.84049L42.3707 4.29926C41.3153 3.30186 39.9313 2.72584 38.4816 2.67171C38.1877 2.66012 37.8901 2.65625 37.5885 2.65625C37.3179 2.65625 37.0473 2.66398 36.7806 2.67558C35.327 2.73743 33.9468 3.32892 32.8953 4.33792L32.358 4.85209C32.2458 4.96033 32.3502 5.14203 32.4971 5.10337C34.0706 4.68585 35.7947 4.45776 37.5924 4.45003C39.421 4.4423 41.1916 4.67039 42.7998 5.09564C42.9544 5.13043 43.0588 4.94487 42.9467 4.84049Z" fill="#FCC49D"/>
</svg>
